# xmcd CD database file
#
# Track frame offsets:
#	188
#	17458
#	39293
#	56595
#	74448
#	92903
#	111605
#	129908
#	141795
#	168323
#	183568
#	206128
#
# Disc length: 2902 seconds
#
# Revision: 4
# Processed by: cddbd v1.5.2PL0 Copyright (c) Steve Scherf et al.
# Submitted via: jetAudio 7
#
DISCID=ab0b540c
DTITLE=Western Union - Endloser Sommer
DYEAR=1989
DGENRE=Country
TTITLE0=Baby, sag ja
TTITLE1=L.I.E.B.E.
TTITLE2=Man sollte einen Drink nach dir benennen
TTITLE3=Ich hab' dich
TTITLE4=Ich seh' die groﬂe Welt nur durch die Windschutzscheibe
TTITLE5=Opfer
TTITLE6=Gottseidank, ist endlich wieder Sommer
TTITLE7=Ein Mann mit Bauch, der tut's doch  auch
TTITLE8=Truckdriver Blues
TTITLE9=Fr‰ulein
TTITLE10=Du, das mag ich
TTITLE11=Hawaiitoast
EXTD=YEAR: 1989 ID3G: 2
EXTT0=
EXTT1=
EXTT2=
EXTT3=
EXTT4=
EXTT5=
EXTT6=
EXTT7=
EXTT8=
EXTT9=
EXTT10=
EXTT11=
PLAYORDER=
